<mxfile modified="2020-04-06T05:55:35.023Z" host="app.diagrams.net" agent="5.0 (Windows NT 10.0; WOW64) AppleWebKit/537.36 (KHTML, like Gecko) Chrome/70.0.3538.25 Safari/537.36 Core/1.70.3756.400 QQBrowser/10.5.4039.400" etag="OCE65wTiL79GhTY9f0kz" version="12.9.8" type="github">
  <diagram id="zNToJbu3nxNMr7Ga2NFg" name="第 1 页">
    <mxGraphModel dx="1088" dy="1332" grid="0" gridSize="10" guides="1" tooltips="1" connect="1" arrows="1" fold="1" page="1" pageScale="1" pageWidth="827" pageHeight="1169" math="0" shadow="0">
      <root>
        <mxCell id="0" />
        <mxCell id="1" parent="0" />
        <mxCell id="jmo3XRGOiWRQadEK1Cw_-11" value="" style="edgeStyle=orthogonalEdgeStyle;rounded=0;orthogonalLoop=1;jettySize=auto;html=1;" parent="1" source="jmo3XRGOiWRQadEK1Cw_-1" target="jmo3XRGOiWRQadEK1Cw_-10" edge="1">
          <mxGeometry relative="1" as="geometry" />
        </mxCell>
        <mxCell id="jmo3XRGOiWRQadEK1Cw_-13" value="" style="rounded=0;orthogonalLoop=1;jettySize=auto;html=1;" parent="1" source="jmo3XRGOiWRQadEK1Cw_-1" target="jmo3XRGOiWRQadEK1Cw_-12" edge="1">
          <mxGeometry relative="1" as="geometry" />
        </mxCell>
        <mxCell id="jmo3XRGOiWRQadEK1Cw_-15" value="" style="edgeStyle=none;rounded=0;orthogonalLoop=1;jettySize=auto;html=1;" parent="1" source="jmo3XRGOiWRQadEK1Cw_-1" target="jmo3XRGOiWRQadEK1Cw_-14" edge="1">
          <mxGeometry relative="1" as="geometry" />
        </mxCell>
        <mxCell id="jmo3XRGOiWRQadEK1Cw_-27" style="edgeStyle=none;rounded=0;orthogonalLoop=1;jettySize=auto;html=1;startArrow=none;startFill=0;dashed=1;strokeWidth=4;" parent="1" source="jmo3XRGOiWRQadEK1Cw_-1" target="jmo3XRGOiWRQadEK1Cw_-22" edge="1">
          <mxGeometry relative="1" as="geometry" />
        </mxCell>
        <mxCell id="jmo3XRGOiWRQadEK1Cw_-1" value="" style="verticalLabelPosition=top;aspect=fixed;html=1;verticalAlign=bottom;strokeColor=none;shape=mxgraph.citrix.cache_server;fillColor=#66B2FF;gradientColor=#0066CC;fontSize=14;labelPosition=center;align=center;" parent="1" vertex="1">
          <mxGeometry x="1070" y="180" width="72.82" height="100" as="geometry" />
        </mxCell>
        <mxCell id="jmo3XRGOiWRQadEK1Cw_-30" style="edgeStyle=none;rounded=0;orthogonalLoop=1;jettySize=auto;html=1;entryX=0.526;entryY=0.989;entryDx=0;entryDy=0;entryPerimeter=0;dashed=1;startArrow=none;startFill=0;strokeWidth=4;" parent="1" source="jmo3XRGOiWRQadEK1Cw_-14" target="jmo3XRGOiWRQadEK1Cw_-22" edge="1">
          <mxGeometry relative="1" as="geometry" />
        </mxCell>
        <mxCell id="jmo3XRGOiWRQadEK1Cw_-14" value="" style="verticalLabelPosition=top;aspect=fixed;html=1;verticalAlign=bottom;strokeColor=none;shape=mxgraph.citrix.cache_server;fillColor=#66B2FF;gradientColor=#0066CC;fontSize=14;labelPosition=center;align=center;" parent="1" vertex="1">
          <mxGeometry x="1334" y="337" width="72.82" height="100" as="geometry" />
        </mxCell>
        <mxCell id="jmo3XRGOiWRQadEK1Cw_-29" style="edgeStyle=none;rounded=0;orthogonalLoop=1;jettySize=auto;html=1;dashed=1;startArrow=none;startFill=0;strokeWidth=4;" parent="1" source="jmo3XRGOiWRQadEK1Cw_-12" target="jmo3XRGOiWRQadEK1Cw_-22" edge="1">
          <mxGeometry relative="1" as="geometry" />
        </mxCell>
        <mxCell id="jmo3XRGOiWRQadEK1Cw_-12" value="" style="verticalLabelPosition=top;aspect=fixed;html=1;verticalAlign=bottom;strokeColor=none;shape=mxgraph.citrix.cache_server;fillColor=#66B2FF;gradientColor=#0066CC;fontSize=14;labelPosition=center;align=center;" parent="1" vertex="1">
          <mxGeometry x="1220" y="422" width="72.82" height="100" as="geometry" />
        </mxCell>
        <mxCell id="jmo3XRGOiWRQadEK1Cw_-28" style="edgeStyle=none;rounded=0;orthogonalLoop=1;jettySize=auto;html=1;dashed=1;startArrow=none;startFill=0;strokeWidth=4;" parent="1" source="jmo3XRGOiWRQadEK1Cw_-10" target="jmo3XRGOiWRQadEK1Cw_-22" edge="1">
          <mxGeometry relative="1" as="geometry" />
        </mxCell>
        <mxCell id="jmo3XRGOiWRQadEK1Cw_-10" value="" style="verticalLabelPosition=top;aspect=fixed;html=1;verticalAlign=bottom;strokeColor=none;shape=mxgraph.citrix.cache_server;fillColor=#66B2FF;gradientColor=#0066CC;fontSize=14;labelPosition=center;align=center;" parent="1" vertex="1">
          <mxGeometry x="1070" y="450" width="71" height="97.5" as="geometry" />
        </mxCell>
        <mxCell id="jmo3XRGOiWRQadEK1Cw_-17" value="&lt;font style=&quot;font-size: 18px&quot; color=&quot;#ff0000&quot;&gt;&lt;b&gt;（主&amp;nbsp;增删改）&lt;br&gt;WriteDB&lt;br&gt;&lt;/b&gt;&lt;/font&gt;" style="text;html=1;strokeColor=none;fillColor=none;align=center;verticalAlign=middle;whiteSpace=wrap;rounded=0;" parent="1" vertex="1">
          <mxGeometry x="950" y="170" width="140" height="70" as="geometry" />
        </mxCell>
        <mxCell id="jmo3XRGOiWRQadEK1Cw_-18" value="&lt;font style=&quot;font-size: 18px&quot;&gt;&lt;b&gt;&lt;font color=&quot;#ff8000&quot;&gt;（从&amp;nbsp;查询）&lt;br&gt;ReadDB1&lt;/font&gt;&lt;br&gt;&lt;/b&gt;&lt;/font&gt;" style="text;html=1;strokeColor=none;fillColor=none;align=center;verticalAlign=middle;whiteSpace=wrap;rounded=0;" parent="1" vertex="1">
          <mxGeometry x="1030" y="547.5" width="140" height="70" as="geometry" />
        </mxCell>
        <mxCell id="jmo3XRGOiWRQadEK1Cw_-19" value="&lt;font style=&quot;font-size: 18px&quot;&gt;&lt;b&gt;&lt;font color=&quot;#00ff00&quot;&gt;（从&amp;nbsp;查询）&lt;br&gt;ReadDB2&lt;/font&gt;&lt;br&gt;&lt;/b&gt;&lt;/font&gt;" style="text;html=1;strokeColor=none;fillColor=none;align=center;verticalAlign=middle;whiteSpace=wrap;rounded=0;" parent="1" vertex="1">
          <mxGeometry x="1271" y="526" width="140" height="70" as="geometry" />
        </mxCell>
        <mxCell id="jmo3XRGOiWRQadEK1Cw_-20" value="&lt;font style=&quot;font-size: 18px&quot;&gt;&lt;b&gt;&lt;font color=&quot;#0000ff&quot;&gt;（从&amp;nbsp;查询）&lt;br&gt;ReadDB3&lt;/font&gt;&lt;br&gt;&lt;/b&gt;&lt;/font&gt;" style="text;html=1;strokeColor=none;fillColor=none;align=center;verticalAlign=middle;whiteSpace=wrap;rounded=0;" parent="1" vertex="1">
          <mxGeometry x="1406.82" y="359" width="140" height="70" as="geometry" />
        </mxCell>
        <mxCell id="jmo3XRGOiWRQadEK1Cw_-22" value="" style="verticalLabelPosition=bottom;aspect=fixed;html=1;verticalAlign=top;strokeColor=none;shape=mxgraph.citrix.xenapp_server;fillColor=#66B2FF;gradientColor=#0066CC;fontSize=14;" parent="1" vertex="1">
          <mxGeometry x="1337" y="170" width="76" height="89" as="geometry" />
        </mxCell>
        <mxCell id="jmo3XRGOiWRQadEK1Cw_-23" value="&lt;font style=&quot;font-size: 18px&quot;&gt;&lt;b&gt;&lt;font color=&quot;#ee00ff&quot;&gt;发布服务器&lt;/font&gt;&lt;br&gt;&lt;/b&gt;&lt;/font&gt;" style="text;html=1;strokeColor=none;fillColor=none;align=center;verticalAlign=middle;whiteSpace=wrap;rounded=0;" parent="1" vertex="1">
          <mxGeometry x="1411" y="170" width="140" height="70" as="geometry" />
        </mxCell>
      </root>
    </mxGraphModel>
  </diagram>
</mxfile>
